<?xml version="1.0" encoding="UTF-8" standalone="no"?>
<svg
   height="128"
   viewBox="0 0 128 128"
   width="128"
   version="1.1"
   id="svg35"
   xml:space="preserve"
   xmlns="http://www.w3.org/2000/svg"
   xmlns:svg="http://www.w3.org/2000/svg"><defs
     id="defs39" /><linearGradient
     id="a"
     gradientUnits="userSpaceOnUse"
     x1="36"
     x2="60"
     y1="68"
     y2="68"><stop
       offset="0"
       stop-color="#ed336c"
       id="stop2" /><stop
       offset="1"
       stop-color="#ffa348"
       id="stop4" /></linearGradient><linearGradient
     id="b"
     gradientTransform="rotate(90,88,56)"
     gradientUnits="userSpaceOnUse"
     x1="72"
     x2="96"
     y1="68"
     y2="68"><stop
       offset="0"
       stop-color="#404ce6"
       id="stop7" /><stop
       offset="1"
       stop-color="#c061cb"
       id="stop9" /></linearGradient><linearGradient
     id="c"
     gradientUnits="userSpaceOnUse"
     x1="68.84919"
     x2="95.257637"
     y1="84"
     y2="84"><stop
       offset="0"
       stop-color="#33d1c6"
       id="stop12" /><stop
       offset="1"
       stop-color="#1c25d8"
       id="stop14" /></linearGradient><path
     style="display:inline;fill:#241f31;fill-opacity:1;stroke:none;stroke-width:0.125;stroke-linejoin:round;stroke-miterlimit:4;stroke-dasharray:none;stroke-opacity:1;enable-background:new"
     clip-path="none"
     d="m 27.978081,8.0000006 h 50.000002 l 30.042897,29.9178934 0.001,74.060006 c 8e-5,4.432 -3.6122,8.0221 -8.044197,8.0221 H 27.97802 c -4.431999,0 -7.999999,-3.568 -7.999999,-8.00001 V 16 c 0,-4.431999 3.568,-7.9999994 7.999999,-7.9999994 z"
     id="path4411" /><path
     style="display:inline;vector-effect:none;fill:#ffffff;fill-opacity:0.2;stroke:none;stroke-width:0.125;stroke-linecap:butt;stroke-linejoin:round;stroke-miterlimit:4;stroke-dasharray:none;stroke-dashoffset:0;stroke-opacity:1;enable-background:new"
     d="M 77.978074,8.0000006 V 30.000002 c 0,4.432 3.610527,7.923448 8.042527,7.923448 l 22.000369,-0.0055 z"
     id="path4413" /><rect
     style="display:none;fill:#9a9996;fill-opacity:1;stroke:#000000;stroke-width:1;stroke-linecap:butt;stroke-linejoin:round;stroke-dasharray:1, 2;stroke-dashoffset:0;stroke-opacity:1;paint-order:stroke fill markers"
     id="rect1"
     width="60.822746"
     height="35.790039"
     x="33.588631"
     y="67.458389" /><rect
     style="display:none;fill:none;stroke:#000000;stroke-width:1;stroke-linecap:butt;stroke-linejoin:round;stroke-dasharray:1, 2;stroke-dashoffset:0;stroke-opacity:1;paint-order:stroke fill markers"
     id="rect4"
     width="60.822742"
     height="35.790039"
     x="33.588631"
     y="67.458389"
     ry="0" /><path
     d="m 39.392578,67.791016 c -3.164031,0 -5.804687,2.640656 -5.804687,5.804687 v 16.351563 c 0,3.16403 2.640656,5.804687 5.804687,5.804687 h 49.214844 c 3.164031,0 5.804687,-2.640657 5.804687,-5.804687 V 73.595703 c 0,-3.164031 -2.640656,-5.804687 -5.804687,-5.804687 z m 0,2.974609 h 49.214844 c 1.568059,0 2.830078,1.262019 2.830078,2.830078 v 16.351563 c 0,1.56806 -1.262019,2.830078 -2.830078,2.830078 H 39.392578 c -1.568059,0 -2.830078,-1.262018 -2.830078,-2.830078 V 73.595703 c 0,-1.568059 1.262019,-2.830078 2.830078,-2.830078 z"
     style="baseline-shift:baseline;display:inline;overflow:visible;vector-effect:none;fill:#ffffff;stroke-linecap:round;stroke-linejoin:round;paint-order:stroke fill markers;enable-background:accumulate;stop-color:#000000;stop-opacity:1"
     id="path16" /><path
     d="m 44.681641,64 c -0.903756,4.31e-4 -1.636288,0.732963 -1.636719,1.636719 v 4.78108 h 3.27539 v -4.78108 C 46.319881,64.7322 45.58616,63.999353 44.681641,64 Z"
     style="baseline-shift:baseline;display:inline;overflow:visible;opacity:1;vector-effect:none;fill:#ffffff;stroke-linecap:round;stroke-linejoin:round;paint-order:stroke fill markers;enable-background:accumulate;stop-color:#000000;stop-opacity:1"
     id="path18" /><path
     d="m 83.318359,64 c 0.903756,4.31e-4 1.636288,0.732963 1.636719,1.636719 v 4.78108 h -3.27539 v -4.78108 C 81.680119,64.7322 82.41384,63.999353 83.318359,64 Z"
     style="baseline-shift:baseline;display:inline;overflow:visible;vector-effect:none;fill:#ffffff;stroke-linecap:round;stroke-linejoin:round;paint-order:stroke fill markers;enable-background:accumulate;stop-color:#000000"
     id="path18-9" /><path
     d="m 44.681641,99.542969 c -0.903756,-4.31e-4 -1.636288,-0.732963 -1.636719,-1.636719 v -4.78108 h 3.27539 v 4.78108 c -4.31e-4,0.904519 -0.734152,1.637366 -1.638671,1.636719 z"
     style="baseline-shift:baseline;display:inline;overflow:visible;vector-effect:none;fill:#ffffff;stroke-linecap:round;stroke-linejoin:round;paint-order:stroke fill markers;enable-background:accumulate;stop-color:#000000"
     id="path18-8" /><path
     d="m 83.318359,99.542969 c 0.903756,-4.31e-4 1.636288,-0.732963 1.636719,-1.636719 v -4.78108 h -3.27539 v 4.78108 c 4.31e-4,0.904519 0.734152,1.637366 1.638671,1.636719 z"
     style="baseline-shift:baseline;display:inline;overflow:visible;vector-effect:none;fill:#ffffff;stroke-linecap:round;stroke-linejoin:round;paint-order:stroke fill markers;enable-background:accumulate;stop-color:#000000"
     id="path18-9-7" /></svg>
