<?xml version="1.0" encoding="UTF-8" standalone="no"?>
<svg
   height="128"
   viewBox="0 0 128 128"
   width="128"
   version="1.1"
   id="svg35"
   xml:space="preserve"
   sodipodi:docname="application-live-alp.svg"
   inkscape:version="1.4.4 (dcaf3e7d9e, 2026-05-05)"
   xmlns:inkscape="http://www.inkscape.org/namespaces/inkscape"
   xmlns:sodipodi="http://sodipodi.sourceforge.net/DTD/sodipodi-0.dtd"
   xmlns="http://www.w3.org/2000/svg"
   xmlns:svg="http://www.w3.org/2000/svg"><sodipodi:namedview
     id="namedview1"
     pagecolor="#ffffff"
     bordercolor="#000000"
     borderopacity="0.25"
     inkscape:showpageshadow="2"
     inkscape:pageopacity="0.0"
     inkscape:pagecheckerboard="0"
     inkscape:deskcolor="#d1d1d1"
     inkscape:zoom="13.457126"
     inkscape:cx="69.962933"
     inkscape:cy="78.471436"
     inkscape:window-width="2560"
     inkscape:window-height="1403"
     inkscape:window-x="0"
     inkscape:window-y="0"
     inkscape:window-maximized="1"
     inkscape:current-layer="svg35" /><defs
     id="defs39" /><linearGradient
     id="a"
     gradientUnits="userSpaceOnUse"
     x1="36"
     x2="60"
     y1="68"
     y2="68"><stop
       offset="0"
       stop-color="#ed336c"
       id="stop2" /><stop
       offset="1"
       stop-color="#ffa348"
       id="stop4" /></linearGradient><linearGradient
     id="b"
     gradientTransform="rotate(90,88,56)"
     gradientUnits="userSpaceOnUse"
     x1="72"
     x2="96"
     y1="68"
     y2="68"><stop
       offset="0"
       stop-color="#404ce6"
       id="stop7" /><stop
       offset="1"
       stop-color="#c061cb"
       id="stop9" /></linearGradient><linearGradient
     id="c"
     gradientUnits="userSpaceOnUse"
     x1="68.84919"
     x2="95.257637"
     y1="84"
     y2="84"><stop
       offset="0"
       stop-color="#33d1c6"
       id="stop12" /><stop
       offset="1"
       stop-color="#1c25d8"
       id="stop14" /></linearGradient><path
     style="display:inline;fill:#f2f2f5;fill-opacity:1;stroke:none;stroke-width:0.125;stroke-linejoin:round;stroke-miterlimit:4;stroke-dasharray:none;stroke-opacity:1;enable-background:new"
     clip-path="none"
     d="m 27.978081,8.0000006 h 50.000002 l 30.042897,29.9178934 0.001,74.060006 c 8e-5,4.432 -3.6122,8.0221 -8.044197,8.0221 H 27.97802 c -4.431999,0 -7.999999,-3.568 -7.999999,-8.00001 V 16 c 0,-4.431999 3.568,-7.9999994 7.999999,-7.9999994 z"
     id="path4411" /><path
     style="display:inline;vector-effect:none;fill:#000036;fill-opacity:0.2;stroke:none;stroke-width:0.125;stroke-linecap:butt;stroke-linejoin:round;stroke-miterlimit:4;stroke-dasharray:none;stroke-dashoffset:0;stroke-opacity:1;enable-background:new"
     d="M 77.978074,8.0000006 V 30.000002 c 0,4.432 3.610527,7.923448 8.042527,7.923448 l 22.000369,-0.0055 z"
     id="path4413" /><rect
     style="display:none;fill:#9a9996;fill-opacity:1;stroke:#000000;stroke-width:1;stroke-linecap:butt;stroke-linejoin:round;stroke-dasharray:1, 2;stroke-dashoffset:0;stroke-opacity:1;paint-order:stroke fill markers"
     id="rect1"
     width="60.822746"
     height="35.790039"
     x="33.588631"
     y="67.458389" /><rect
     style="display:none;fill:none;stroke:#000000;stroke-width:1;stroke-linecap:butt;stroke-linejoin:round;stroke-dasharray:1, 2;stroke-dashoffset:0;stroke-opacity:1;paint-order:stroke fill markers"
     id="rect4"
     width="60.822742"
     height="35.790039"
     x="33.588631"
     y="67.458389"
     ry="0" /><path
     id="path14"
     style="fill:#9b9bae;stroke-width:6.83549;stroke-linecap:round;stroke-linejoin:round;paint-order:stroke fill markers;fill-opacity:1"
     d="M 48.917969 61.5 C 46.016612 61.5 43.605469 63.915184 43.605469 66.814453 L 43.605469 68.03125 L 43.605469 95.759766 L 43.605469 96.976562 C 43.605469 99.875833 46.016619 102.29101 48.917969 102.29102 L 79.082031 102.29102 C 81.983382 102.29102 84.394532 99.875825 84.394531 96.976562 L 84.394531 95.759766 L 84.394531 68.03125 L 84.394531 66.814453 C 84.394531 63.915192 81.983388 61.5 79.082031 61.5 L 48.917969 61.5 z M 48.917969 64 L 79.082031 64 C 80.640822 64 81.894531 65.255669 81.894531 66.814453 L 81.894531 68.03125 L 46.105469 68.03125 L 46.105469 66.814453 C 46.105469 65.255669 47.359185 64 48.917969 64 z M 46.105469 95.759766 L 81.894531 95.759766 L 81.894531 96.976562 C 81.894531 98.535353 80.640822 99.791016 79.082031 99.791016 L 48.917969 99.791016 C 47.359185 99.791015 46.105469 98.535353 46.105469 96.976562 L 46.105469 95.759766 z " /></svg>
