<?xml version="1.0" encoding="UTF-8" standalone="no"?>
<svg
   height="16px"
   viewBox="0 0 16 16"
   width="16px"
   version="1.1"
   id="svg15572"
   sodipodi:docname="live.svg"
   inkscape:export-filename="/mnt/external/cloud/design/gnome/image.svg"
   inkscape:version="1.4.4 (dcaf3e7d9e, 2026-05-05)"
   xml:space="preserve"
   xmlns:inkscape="http://www.inkscape.org/namespaces/inkscape"
   xmlns:sodipodi="http://sodipodi.sourceforge.net/DTD/sodipodi-0.dtd"
   xmlns="http://www.w3.org/2000/svg"
   xmlns:svg="http://www.w3.org/2000/svg"><sodipodi:namedview
     id="namedview1"
     pagecolor="#ffffff"
     bordercolor="#000000"
     borderopacity="0.25"
     inkscape:showpageshadow="2"
     inkscape:pageopacity="0.0"
     inkscape:pagecheckerboard="0"
     inkscape:deskcolor="#d1d1d1"
     showborder="false"
     inkscape:zoom="37.375"
     inkscape:cx="8.2541806"
     inkscape:cy="10.140468"
     inkscape:window-width="2560"
     inkscape:window-height="1403"
     inkscape:window-x="0"
     inkscape:window-y="0"
     inkscape:window-maximized="1"
     inkscape:current-layer="svg15572" /><defs
     id="defs15576"><clipPath
       clipPathUnits="userSpaceOnUse"
       id="clipPath23"><path
         d="M 0,0 H 595.276 V 841.89 H 0 Z"
         transform="translate(-543.92212,-812.66932)"
         id="path23" /></clipPath></defs><inkscape:templateinfo><inkscape:name>morewaita-symbolic</inkscape:name><inkscape:date>2025-09-24</inkscape:date></inkscape:templateinfo><path
     d="m 2.5e-5,4.0572315 v 7.5475305 h 3.37158 V 10.517981 H 1.15099 V 4.0572315 Z m 4.25403,2.7811125 v 4.766418 h 1.10817 V 6.838344 Z m -0.1584,-1.9681695 c 0,0.406485 0.30375,0.7145325 0.714555,0.7145325 0.40635,0 0.710235,-0.30807 0.710235,-0.7145325 0,-0.406485 -0.30375,-0.710253 -0.710235,-0.710253 -0.41085,0 -0.714555,0.303795 -0.714555,0.710253 z M 6.133345,6.838344 8.59786,11.94277 11.06665,6.838344 H 9.82159 L 8.59786,9.555282 7.37845,6.838344 Z m 8.90388,3.1576455 c -0.1026,0.1839605 -0.24795,0.3765155 -0.44055,0.5219915 -0.2268,0.171135 -0.453555,0.239624 -0.757305,0.239624 -0.27405,0 -0.59049,-0.04711 -0.847215,-0.30807 -0.2394,-0.235305 -0.3852,-0.620392 -0.41085,-0.962689 h 3.41865 V 9.354231 c 0,-0.5006025 -0.0558,-1.382004 -0.66744,-2.0152485 -0.28215,-0.2952 -0.770175,-0.6246765 -1.52748,-0.6246765 -0.68031,0 -1.198035,0.25245 -1.59597,0.646074 -0.496305,0.509157 -0.757305,1.223694 -0.757305,1.9596195 0,0.7102535 0.24795,1.3691655 0.70173,1.8227025 0.45351,0.44928 0.971235,0.607572 1.604475,0.607572 0.50913,0 1.018305,-0.11124 1.403415,-0.359415 0.3078,-0.192555 0.60327,-0.509157 0.80433,-0.872842 z m -2.37465,-1.411956 c 0.0558,-0.239625 0.18,-0.4663755 0.33795,-0.611847 0.14985,-0.145485 0.3978,-0.30375 0.783,-0.30375 0.35955,0 0.598995,0.132615 0.74448,0.26955 0.17145,0.15831 0.2952,0.385065 0.34245,0.6460695 z"
     style="fill:#000000;fill-opacity:1;fill-rule:nonzero;stroke:none;stroke-width:0.365112"
     id="path1-8" /></svg>
