<?xml version="1.0" encoding="UTF-8" standalone="no"?>
<svg
   viewBox="0 0 128 128"
   style="display:inline;enable-background:new"
   version="1.0"
   id="svg11300"
   height="128"
   width="128"
   sodipodi:docname="live-beta.svg"
   inkscape:export-filename="/mnt/external/cloud/design/gnome/image.svg"
   inkscape:version="1.4.4 (dcaf3e7d9e, 2026-05-05)"
   xml:space="preserve"
   xmlns:inkscape="http://www.inkscape.org/namespaces/inkscape"
   xmlns:sodipodi="http://sodipodi.sourceforge.net/DTD/sodipodi-0.dtd"
   xmlns:xlink="http://www.w3.org/1999/xlink"
   xmlns="http://www.w3.org/2000/svg"
   xmlns:svg="http://www.w3.org/2000/svg"
   xmlns:rdf="http://www.w3.org/1999/02/22-rdf-syntax-ns#"
   xmlns:cc="http://creativecommons.org/ns#"
   xmlns:dc="http://purl.org/dc/elements/1.1/"><sodipodi:namedview
     id="namedview1"
     pagecolor="#ffffff"
     bordercolor="#000000"
     borderopacity="0.25"
     inkscape:showpageshadow="2"
     inkscape:pageopacity="0.0"
     inkscape:pagecheckerboard="0"
     inkscape:deskcolor="#d1d1d1"
     showborder="false"
     inkscape:zoom="3.3035145"
     inkscape:cx="-53.12524"
     inkscape:cy="50.85493"
     inkscape:window-width="2560"
     inkscape:window-height="1403"
     inkscape:window-x="0"
     inkscape:window-y="0"
     inkscape:window-maximized="1"
     inkscape:current-layer="svg11300" /><title
     id="title4162">Adwaita Icon Template</title><defs
     id="defs3"><linearGradient
       id="linearGradient1"
       inkscape:collect="always"><stop
         style="stop-color:#ffa374;stop-opacity:1;"
         offset="0"
         id="stop1" /><stop
         style="stop-color:#ffb995;stop-opacity:1;"
         offset="1"
         id="stop8" /></linearGradient><linearGradient
       id="linearGradient7"><stop
         style="stop-color:#ffc1a0;stop-opacity:1;"
         offset="0"
         id="stop2" /><stop
         id="stop3"
         offset="0.05258933"
         style="stop-color:#ffe2c7;stop-opacity:1;" /><stop
         style="stop-color:#ffc1a0;stop-opacity:1;"
         offset="0.104504"
         id="stop4" /><stop
         id="stop5"
         offset="0.90139705"
         style="stop-color:#ffc1a0;stop-opacity:1;" /><stop
         style="stop-color:#ffe2c7;stop-opacity:1;"
         offset="0.9503994"
         id="stop6" /><stop
         style="stop-color:#ffc1a0;stop-opacity:1;"
         offset="1"
         id="stop7" /></linearGradient><linearGradient
       xlink:href="#linearGradient7"
       id="linearGradient2"
       x1="12"
       y1="66"
       x2="116"
       y2="66"
       gradientUnits="userSpaceOnUse" /><clipPath
       clipPathUnits="userSpaceOnUse"
       id="clipPath23"><path
         d="M 0,0 H 595.276 V 841.89 H 0 Z"
         transform="translate(-543.92212,-812.66932)"
         id="path23" /></clipPath><linearGradient
       inkscape:collect="always"
       xlink:href="#linearGradient1"
       id="linearGradient8"
       x1="84.548492"
       y1="112"
       x2="35.946487"
       y2="12"
       gradientUnits="userSpaceOnUse" /></defs><metadata
     id="metadata4"><rdf:RDF><cc:Work
         rdf:about=""><dc:format>image/svg+xml</dc:format><dc:type
           rdf:resource="http://purl.org/dc/dcmitype/StillImage" /><dc:creator><cc:Agent><dc:title>GNOME Design Team</dc:title></cc:Agent></dc:creator><dc:source /><cc:license
           rdf:resource="http://creativecommons.org/licenses/by-sa/4.0/" /><dc:title>Adwaita Icon Template</dc:title><dc:subject><rdf:Bag /></dc:subject><dc:date /><dc:rights><cc:Agent><dc:title /></cc:Agent></dc:rights><dc:publisher><cc:Agent><dc:title /></cc:Agent></dc:publisher><dc:identifier /><dc:relation /><dc:language /><dc:coverage /><dc:description /><dc:contributor><cc:Agent><dc:title /></cc:Agent></dc:contributor></cc:Work><cc:License
         rdf:about="http://creativecommons.org/licenses/by-sa/4.0/"><cc:permits
           rdf:resource="http://creativecommons.org/ns#Reproduction" /><cc:permits
           rdf:resource="http://creativecommons.org/ns#Distribution" /><cc:requires
           rdf:resource="http://creativecommons.org/ns#Notice" /><cc:requires
           rdf:resource="http://creativecommons.org/ns#Attribution" /><cc:permits
           rdf:resource="http://creativecommons.org/ns#DerivativeWorks" /><cc:requires
           rdf:resource="http://creativecommons.org/ns#ShareAlike" /></cc:License></rdf:RDF></metadata><rect
     style="display:inline;fill:url(#linearGradient2);fill-opacity:1;stroke:none;stroke-width:0.25;stroke-linecap:butt;stroke-linejoin:miter;stroke-miterlimit:4;stroke-dasharray:none;stroke-dashoffset:0;stroke-opacity:1;marker:none;marker-start:none;marker-mid:none;marker-end:none;paint-order:normal;enable-background:new"
     id="rect1"
     width="104"
     height="100"
     x="12"
     y="16"
     rx="8"
     ry="8" /><rect
     style="display:inline;fill:url(#linearGradient8);fill-opacity:1;stroke:none;stroke-width:0.25;stroke-linecap:butt;stroke-linejoin:miter;stroke-miterlimit:4;stroke-dasharray:none;stroke-dashoffset:0;stroke-opacity:1;marker:none;marker-start:none;marker-mid:none;marker-end:none;paint-order:normal;enable-background:new"
     id="rect1711"
     width="104"
     height="100"
     x="12"
     y="12"
     rx="8"
     ry="8" /><inkscape:templateinfo><inkscape:name>morewaita-square</inkscape:name><inkscape:date>2025-09-23</inkscape:date></inkscape:templateinfo><path
     d="M 30.682418,45.579557 V 77.012742 H 44.724022 V 72.486628 H 35.475771 V 45.579557 Z m 17.716809,11.582501 v 19.850685 h 4.615166 V 57.162059 Z m -0.659294,-8.196849 c 0,1.692825 1.265144,2.975829 2.975786,2.975829 1.692817,0 2.958019,-1.283004 2.958019,-2.975829 0,-1.692827 -1.265202,-2.957987 -2.958019,-2.957987 -1.710642,0 -2.975786,1.26516 -2.975786,2.957987 z m 8.486424,8.196849 10.263892,21.258385 10.281711,-21.258385 h -5.185404 l -5.096306,11.31522 -5.078496,-11.31522 z m 37.081875,13.15063 c -0.427585,0.766243 -1.033546,1.568085 -1.835367,2.173941 -0.944446,0.712754 -1.888878,0.997884 -3.154044,0.997884 -1.14044,0 -2.459064,-0.196127 -3.528236,-1.28301 -0.997874,-0.980032 -1.603717,-2.583763 -1.710605,-4.00931 h 14.237602 v -0.552405 c 0,-2.084848 -0.231897,-5.755626 -2.779816,-8.392883 -1.176121,-1.229513 -3.207481,-2.601607 -6.361502,-2.601607 -2.833258,0 -4.989396,1.051363 -6.646594,2.690702 -2.067032,2.120493 -3.154007,5.096323 -3.154007,8.161244 0,2.957984 1.033523,5.702139 2.922401,7.590994 1.888804,1.871012 4.044943,2.530358 6.682192,2.530358 2.120491,0 4.240951,-0.463315 5.84474,-1.496834 1.282987,-0.801888 2.512499,-2.120493 3.350005,-3.635134 z m -9.889677,-5.880365 c 0.231437,-0.997877 0.748371,-1.942305 1.407687,-2.548161 0.623703,-0.605856 1.657183,-1.265162 3.260945,-1.265162 1.4968,0 2.494683,0.552412 3.100555,1.122621 0.712789,0.659302 1.229533,1.603731 1.425556,2.690702 z"
     style="fill:#241f31;fill-opacity:1;fill-rule:nonzero;stroke:none;stroke-width:1.52059"
     id="path1-8" /></svg>
